<?xml version="1.0" encoding="UTF-8" standalone="no"?>
<!DOCTYPE svg PUBLIC "-//W3C//DTD SVG 1.1//EN" "http://www.w3.org/Graphics/SVG/1.1/DTD/svg11.dtd">
<svg width="100%" height="100%" viewBox="0 0 2048 1536" version="1.1" xmlns="http://www.w3.org/2000/svg" xmlns:xlink="http://www.w3.org/1999/xlink" xml:space="preserve" xmlns:serif="http://www.serif.com/" style="fill-rule:evenodd;clip-rule:evenodd;stroke-linejoin:round;stroke-miterlimit:2;">
    <g transform="matrix(79.8095,0,0,1.0062,-105193,-6.9532)">
        <ellipse cx="1334.87" cy="1322.39" rx="2.524" ry="200.679" style="fill:rgb(7,142,83);fill-opacity:0.99;"/>
    </g>
    <path d="M1058.17,1122.2C1047.56,1123.36 1036.79,1123.93 1025.88,1123.93C858.614,1123.93 722.815,987.527 722.815,819.51C722.815,651.494 858.614,515.086 1025.88,515.086C1107.22,515.086 1181.12,547.344 1235.59,599.816L1235.38,562.261C1225.09,407.69 1074.05,316.359 972.587,321.745C862.298,327.6 716.782,412.786 721.915,590.846L720.834,1063.12L719.055,1062.2L719.055,1370.86C720.584,1436.67 689.318,1517.52 581.332,1516.81C501.41,1516.29 432.832,1500.86 429.887,1370.86C427.151,1093.34 426.251,788.142 435.875,551.629C448.028,252.961 690.278,34.775 977.202,34.775C1277.9,34.775 1522.03,279.566 1522.03,581.079C1522.03,754.382 1441.37,908.945 1315.64,1009C1322.64,989.146 1326.43,967.778 1326.43,945.533C1326.43,839.4 1240.25,753.233 1134.11,753.233C1027.97,753.233 941.799,839.4 941.799,945.533C941.799,1024.7 989.743,1092.75 1058.17,1122.2Z" style="fill:rgb(17,25,135);fill-opacity:0.99;"/>
</svg>
